<?xml version="1.0" encoding="UTF-8"?>
<svg id="Layer_1" xmlns="http://www.w3.org/2000/svg" version="1.1" xmlns:xlink="http://www.w3.org/1999/xlink" viewBox="0 0 800 327.1">
  <!-- Generator: Adobe Illustrator 29.6.1, SVG Export Plug-In . SVG Version: 2.1.1 Build 9)  -->
  <defs>
    <style>
      .st0 {
        fill: #fff;
      }

      .st1 {
        fill: none;
      }

      .st2 {
        fill: #002991;
      }

      .st3 {
        clip-path: url(#clippath);
      }
    </style>
    <clipPath id="clippath">
      <rect class="st1" width="800" height="327.1"/>
    </clipPath>
  </defs>
  <g class="st3">
    <path class="st2" d="M274.8,44.9l.8-.8C220.6-7.4,138.6-13.8,76.9,24.8c26.8-2.2,60.7,8.7,95.1,30.6,32.7,20.8,75.3,16.8,102.7-10.6h0Z"/>
    <path class="st2" d="M152,182.6l-100.4,100.4c64.1,60.1,165,58.8,227.6-3.7,12.6-12.6,15.6-32.9,10.4-56.7-13.7-63-92.1-85.4-137.7-39.9h0Z"/>
    <path class="st2" d="M271.6,155.1c21.9,34.5,32.8,68.4,30.6,95.1,38.6-61.8,32.2-143.8-19.3-198.7l-.8.8c-27.4,27.4-31.4,70-10.6,102.7h0Z"/>
    <path class="st2" d="M144.5,175.2c45.6-45.6,23.1-124.1-39.9-137.7-23.9-5.2-44.2-2.1-56.7,10.4-62.6,62.6-63.8,163.6-3.7,227.6l100.4-100.4h-.1Z"/>
    <path class="st0" d="M379.5,242.3l17.5-103.3c1.9-11.4,5-20.7,9.2-28s9.5-13,15.8-17.1,13.8-6.9,22.4-8.5,18.2-2.4,28.9-2.4,12.8.4,19.9,1.1c7.2.7,13.6,1.7,19.5,3.1l.4,2.6c-.6,2.6-1,6.1-1.2,10.5s-.4,8.8-.4,13.3-.1,8.2-.1,11.2v78.8c0,21.4-17.3,38.7-38.7,38.7v-113.5c0-4.2.2-8.1.5-11.7.4-3.6.8-6.8,1.4-9.7l5.1,9.4c-1.6-.4-3.8-.8-6.5-1s-5.2-.3-7.6-.3c-6.9,0-12.3.9-16.4,2.7-4.1,1.8-7.2,4.6-9.3,8.2-2.1,3.6-3.7,8.3-4.7,14l-16.9,102h-38.9.1ZM407.5,202v-31.1h83.1v31.1h-83.1Z"/>
    <path class="st0" d="M533.1,164.2c0-16.2,3.5-30.4,10.4-42.8,6.9-12.3,17.1-22,30.5-28.9s29.9-10.4,49.4-10.4,15.2.6,21.7,1.7c6.4,1.2,11.3,2.5,14.7,3.9v33.5h-2.4c-3.2-1.7-7.7-3.2-13.5-4.5s-12.1-1.9-18.8-1.9c-17.5,0-30.6,4.2-39.3,12.7-8.7,8.4-13,20.9-13,37.2s1.8,18.7,5.5,25.9c3.6,7.2,8.8,12.7,15.5,16.5s14.7,5.7,23.9,5.7,8.1-.4,11.2-1.3c3.1-.9,5.7-2.4,8.1-4.6l-7.2,20.3v-65.6c19.7,0,35.7,16,35.7,35.7v38.7c-5.7,2.6-12.7,4.7-20.9,6.3s-17.3,2.4-27.3,2.4c-18.7,0-34.2-3.4-46.6-10.1-12.4-6.7-21.8-16.2-28-28.3-6.3-12.2-9.4-26.3-9.4-42.3h0l-.2.2h0Z"/>
    <path class="st0" d="M693.3,242.3V84.8h38.9v157.5h-38.9ZM714.2,118.5v-33.7h50.1c18.6,0,33.7,15.1,33.7,33.7h-83.8ZM714.2,179.3v-31.9h72.7v31.9h-72.7ZM714.2,242.3v-33.7h85.8c0,18.6-15.1,33.7-33.7,33.7h-52.1Z"/>
  </g>
</svg>