<?xml version="1.0" encoding="UTF-8"?>
<svg id="Layer_1" xmlns="http://www.w3.org/2000/svg" version="1.1" xmlns:xlink="http://www.w3.org/1999/xlink" viewBox="0 0 800 800">
  <!-- Generator: Adobe Illustrator 29.6.1, SVG Export Plug-In . SVG Version: 2.1.1 Build 9)  -->
  <defs>
    <style>
      .st0 {
        fill: none;
      }

      .st1 {
        fill: #60cdff;
      }

      .st2 {
        clip-path: url(#clippath);
      }
    </style>
    <clipPath id="clippath">
      <rect class="st0" width="800" height="800"/>
    </clipPath>
  </defs>
  <g class="st2">
    <path class="st1" d="M672,109.9l2-2C539.6-18,339-33.7,188,60.8c65.5-5.4,148.4,21.4,232.7,74.9,80,50.9,184.2,41.1,251.2-25.9h0Z"/>
    <path class="st1" d="M371.6,446.6l-245.4,245.4c156.7,146.9,403.6,143.9,556.6-9.1,30.8-30.8,38.1-80.4,25.5-138.8-33.4-154-225.3-208.9-336.7-97.5h0Z"/>
    <path class="st1" d="M664.3,379.3c53.6,84.3,80.3,167.2,74.9,232.7,94.5-151,78.8-351.6-47.1-485.9l-2,2c-67,67-76.8,171.2-25.9,251.2h0Z"/>
    <path class="st1" d="M353.4,428.4c111.4-111.4,56.5-303.4-97.5-336.7-58.5-12.6-108-5.3-138.8,25.5-153,153-156,400.1-9.1,556.6l245.4-245.4h0Z"/>
  </g>
</svg>