<?xml version="1.0" encoding="UTF-8"?>
<svg id="Layer_1" xmlns="http://www.w3.org/2000/svg" version="1.1" xmlns:xlink="http://www.w3.org/1999/xlink" viewBox="0 0 535.2 800">
  <!-- Generator: Adobe Illustrator 29.6.1, SVG Export Plug-In . SVG Version: 2.1.1 Build 9)  -->
  <defs>
    <style>
      .st0 {
        fill: none;
      }

      .st1 {
        fill: #60cdff;
      }

      .st2 {
        fill: #002991;
      }

      .st3 {
        clip-path: url(#clippath);
      }
    </style>
    <clipPath id="clippath">
      <rect class="st0" width="535.2" height="800"/>
    </clipPath>
  </defs>
  <g class="st3">
    <path class="st1" d="M449.5,73.5l1.3-1.3C360.9-12,226.8-22.6,125.7,40.7c43.8-3.6,99.3,14.3,155.7,50.1,53.5,34,123.2,27.5,168-17.3h0Z"/>
    <path class="st1" d="M248.6,298.8l-164.2,164.2c104.8,98.3,270,96.3,372.4-6.1,20.6-20.6,25.5-53.8,17.1-92.8-22.3-103-150.7-139.8-225.2-65.2Z"/>
    <path class="st1" d="M444.4,253.8c35.9,56.4,53.7,111.8,50.1,155.7,63.2-101,52.7-235.2-31.5-325l-1.3,1.3c-44.8,44.8-51.4,114.5-17.3,168h0Z"/>
    <path class="st1" d="M236.4,286.6c74.5-74.5,37.8-203-65.2-225.2-39.1-8.4-72.3-3.5-92.8,17.1-102.4,102.4-104.4,267.6-6.1,372.4l164.2-164.2Z"/>
    <path class="st2" d="M36.2,797.1l19.3-113.7c2.1-12.5,5.5-22.8,10.1-30.9,4.7-8,10.5-14.3,17.4-18.8,7-4.5,15.2-7.6,24.7-9.4,9.5-1.8,20.1-2.7,31.8-2.7s14.1.4,21.9,1.2c7.9.8,15,1.9,21.5,3.4l.5,2.9c-.6,2.9-1.1,6.8-1.3,11.6-.2,4.8-.4,9.7-.5,14.7,0,5-.1,9.1-.1,12.3v86.7c0,23.5-19.1,42.6-42.6,42.6v-125c0-4.7.2-8.9.6-12.9.4-3.9.9-7.5,1.6-10.7l5.6,10.4c-1.8-.5-4.1-.8-7.1-1.1-3-.2-5.7-.4-8.3-.4-7.6,0-13.6,1-18.1,3-4.5,2-7.9,5-10.2,9s-4.1,9.2-5.2,15.4l-18.6,112.3h-42.9,0ZM67,752.8v-34.2h91.5v34.2h-91.5Z"/>
    <path class="st2" d="M205.3,711.1c0-17.8,3.8-33.5,11.4-47.1,7.6-13.6,18.8-24.2,33.6-31.8,14.8-7.6,32.9-11.4,54.4-11.4s16.8.6,23.9,1.9c7.1,1.3,12.5,2.7,16.2,4.3v36.9h-2.7c-3.5-1.9-8.5-3.6-14.9-4.9-6.4-1.4-13.3-2-20.7-2-19.3,0-33.7,4.7-43.2,14-9.6,9.3-14.3,23-14.3,41s2,20.6,6,28.5c4,8,9.7,14,17.1,18.2,7.4,4.2,16.2,6.3,26.3,6.3s8.9-.5,12.3-1.4c3.4-1,6.3-2.7,8.9-5.1l-8,22.4v-72.2c21.7,0,39.3,17.6,39.3,39.3v42.6c-6.3,2.9-13.9,5.2-23,7-9.1,1.8-19.1,2.6-30,2.6-20.6,0-37.7-3.7-51.3-11.1-13.7-7.4-23.9-17.8-30.8-31.2-6.9-13.4-10.4-28.9-10.4-46.6h0Z"/>
    <path class="st2" d="M381.6,797.1v-173.4h42.9v173.4h-42.9ZM404.7,660.8v-37.1h55.2c20.5,0,37.1,16.6,37.1,37.1h-92.3,0ZM404.7,727.8v-35.2h80v35.2h-80ZM404.7,797.1v-37.1h94.4c0,20.5-16.6,37.1-37.1,37.1h-57.3Z"/>
  </g>
</svg>